<svg width="470" height="323" viewBox="0 0 470 323" fill="none" xmlns="http://www.w3.org/2000/svg">
<rect width="470" height="323" fill="black"/>
<path d="M338.34 286.08C339.18 286.08 339.9 286.207 340.5 286.46C341.113 286.7 341.707 287.08 342.28 287.6L341.58 288.36C341.06 287.92 340.553 287.6 340.06 287.4C339.567 287.2 339.007 287.1 338.38 287.1C337.527 287.1 336.84 287.313 336.32 287.74C335.8 288.153 335.54 288.713 335.54 289.42C335.54 289.9 335.633 290.3 335.82 290.62C336.02 290.927 336.347 291.207 336.8 291.46C337.253 291.7 337.9 291.947 338.74 292.2C339.647 292.48 340.38 292.78 340.94 293.1C341.5 293.42 341.933 293.833 342.24 294.34C342.547 294.847 342.7 295.487 342.7 296.26C342.7 297.033 342.513 297.72 342.14 298.32C341.767 298.92 341.233 299.387 340.54 299.72C339.86 300.053 339.067 300.22 338.16 300.22C336.453 300.22 334.993 299.647 333.78 298.5L334.46 297.74C335.02 298.22 335.587 298.587 336.16 298.84C336.733 299.08 337.393 299.2 338.14 299.2C339.127 299.2 339.927 298.94 340.54 298.42C341.167 297.9 341.48 297.193 341.48 296.3C341.48 295.74 341.373 295.28 341.16 294.92C340.96 294.56 340.627 294.253 340.16 294C339.707 293.733 339.06 293.467 338.22 293.2C336.82 292.773 335.82 292.28 335.22 291.72C334.62 291.16 334.32 290.4 334.32 289.44C334.32 288.8 334.487 288.227 334.82 287.72C335.167 287.2 335.64 286.8 336.24 286.52C336.853 286.227 337.553 286.08 338.34 286.08ZM347.201 286.3V300H346.001V286.3H347.201ZM356.466 286.08C357.239 286.08 357.912 286.193 358.486 286.42C359.059 286.633 359.639 286.973 360.226 287.44L359.506 288.2C359.012 287.813 358.532 287.533 358.066 287.36C357.599 287.187 357.066 287.1 356.466 287.1C355.679 287.1 354.946 287.307 354.266 287.72C353.599 288.133 353.052 288.793 352.626 289.7C352.212 290.593 352.006 291.727 352.006 293.1C352.006 295.14 352.392 296.667 353.166 297.68C353.939 298.693 355.019 299.2 356.406 299.2C357.472 299.2 358.432 298.96 359.286 298.48V293.62H356.606L356.466 292.62H360.466V299.1C359.159 299.847 357.806 300.22 356.406 300.22C354.659 300.22 353.279 299.613 352.266 298.4C351.252 297.187 350.746 295.42 350.746 293.1C350.746 291.593 351.006 290.313 351.526 289.26C352.059 288.193 352.759 287.4 353.626 286.88C354.506 286.347 355.452 286.08 356.466 286.08ZM373.029 300H371.449L364.989 287.62C365.096 289.287 365.149 290.86 365.149 292.34V300H364.009V286.3H365.549L372.049 298.68C371.942 297.133 371.889 295.78 371.889 294.62V286.3H373.029V300ZM378.666 286.3V300H377.466V286.3H378.666ZM383.111 300V286.3H389.951L389.811 287.3H384.311V292.64H389.051V293.64H384.311V300H383.111ZM393.94 286.3V300H392.74V286.3H393.94ZM403.024 286.08C403.784 286.08 404.424 286.187 404.944 286.4C405.477 286.6 406.011 286.913 406.544 287.34L405.904 288.14C405.437 287.767 404.991 287.5 404.564 287.34C404.137 287.18 403.651 287.1 403.104 287.1C401.811 287.1 400.757 287.593 399.944 288.58C399.144 289.567 398.744 291.087 398.744 293.14C398.744 294.473 398.931 295.593 399.304 296.5C399.677 297.407 400.184 298.08 400.824 298.52C401.477 298.947 402.217 299.16 403.044 299.16C403.697 299.16 404.251 299.067 404.704 298.88C405.157 298.68 405.617 298.393 406.084 298.02L406.704 298.8C405.704 299.747 404.471 300.22 403.004 300.22C401.937 300.22 400.984 299.947 400.144 299.4C399.317 298.853 398.664 298.053 398.184 297C397.717 295.933 397.484 294.647 397.484 293.14C397.484 291.633 397.731 290.353 398.224 289.3C398.717 288.233 399.377 287.433 400.204 286.9C401.044 286.353 401.984 286.08 403.024 286.08ZM416.86 300L415.66 296.26H409.9L408.7 300H407.48L412.06 286.3H413.56L418.12 300H416.86ZM410.24 295.24H415.34L412.8 287.28L410.24 295.24ZM423.409 286.3C425.302 286.3 426.835 286.78 428.009 287.74C429.195 288.7 429.789 290.467 429.789 293.04C429.789 295.613 429.189 297.42 427.989 298.46C426.802 299.487 425.349 300 423.629 300H420.689V286.3H423.409ZM421.889 287.3V299H423.709C426.922 299 428.529 297.013 428.529 293.04C428.529 291.467 428.295 290.26 427.829 289.42C427.362 288.58 426.769 288.02 426.049 287.74C425.342 287.447 424.515 287.3 423.569 287.3H421.889ZM438.005 286.08C439.125 286.08 440.105 286.353 440.945 286.9C441.785 287.433 442.439 288.233 442.905 289.3C443.372 290.367 443.605 291.653 443.605 293.16C443.605 294.64 443.372 295.913 442.905 296.98C442.452 298.033 441.805 298.84 440.965 299.4C440.125 299.947 439.139 300.22 438.005 300.22C436.899 300.22 435.925 299.947 435.085 299.4C434.245 298.853 433.592 298.053 433.125 297C432.659 295.947 432.425 294.673 432.425 293.18C432.425 291.7 432.659 290.427 433.125 289.36C433.592 288.293 434.245 287.48 435.085 286.92C435.939 286.36 436.912 286.08 438.005 286.08ZM438.005 287.1C436.672 287.1 435.619 287.613 434.845 288.64C434.072 289.653 433.685 291.167 433.685 293.18C433.685 295.167 434.072 296.667 434.845 297.68C435.632 298.693 436.685 299.2 438.005 299.2C439.379 299.2 440.445 298.7 441.205 297.7C441.965 296.687 442.345 295.173 442.345 293.16C442.345 291.133 441.959 289.62 441.185 288.62C440.425 287.607 439.365 287.1 438.005 287.1Z" fill="#A8A8A8"/>
<path d="M40.92 18.1C45.6 18.1 49.65 18.76 53.07 20.08C56.55 21.4 59.7 23.41 62.52 26.11L55.68 34.12C51.42 30.64 46.86 28.9 42 28.9C39.42 28.9 37.38 29.44 35.88 30.52C34.38 31.54 33.63 33.04 33.63 35.02C33.63 36.4 33.96 37.54 34.62 38.44C35.28 39.28 36.45 40.09 38.13 40.87C39.81 41.65 42.33 42.58 45.69 43.66C52.05 45.7 56.73 48.22 59.73 51.22C62.73 54.16 64.23 58.36 64.23 63.82C64.23 67.72 63.24 71.17 61.26 74.17C59.28 77.11 56.43 79.42 52.71 81.1C48.99 82.72 44.58 83.53 39.48 83.53C34.38 83.53 29.85 82.72 25.89 81.1C21.99 79.48 18.63 77.32 15.81 74.62L23.28 66.43C25.68 68.47 28.14 70 30.66 71.02C33.24 72.04 36.03 72.55 39.03 72.55C42.09 72.55 44.49 71.89 46.23 70.57C48.03 69.19 48.93 67.3 48.93 64.9C48.93 63.34 48.6 62.05 47.94 61.03C47.28 59.95 46.14 58.99 44.52 58.15C42.9 57.31 40.56 56.41 37.5 55.45C30.6 53.35 25.68 50.77 22.74 47.71C19.86 44.65 18.42 40.78 18.42 36.1C18.42 32.5 19.38 29.35 21.3 26.65C23.22 23.89 25.89 21.79 29.31 20.35C32.73 18.85 36.6 18.1 40.92 18.1ZM133.395 82H118.905L117.825 57.61C117.525 51.79 117.375 46.6 117.375 42.04C117.375 38.56 117.465 35.26 117.645 32.14L108.015 75.43H94.065L83.805 32.14C84.165 37.36 84.345 42.28 84.345 46.9C84.345 50.38 84.255 54.01 84.075 57.79L82.995 82H68.595L73.275 19.63H91.905L101.265 61.93L109.995 19.63H128.715L133.395 82ZM175.077 82L171.837 68.59H153.657L150.507 82H135.207L154.017 19.63H171.927L190.737 82H175.077ZM156.177 57.88H169.317L162.747 30.34L156.177 57.88ZM210.073 19.63V70.3H234.373L232.843 82H195.313V19.63H210.073ZM256.215 19.63V70.3H280.515L278.985 82H241.455V19.63H256.215ZM63.51 110.63L62.07 121.97H46.68V173H31.92V121.97H15.81V110.63H63.51ZM107.704 110.63L106.174 121.16H84.2135V136.1H103.384V146.45H84.2135V162.38H107.704V173H69.4535V110.63H107.704ZM145.627 139.34L163.627 173H147.517L136.807 149.24L126.277 173H110.617L128.077 139.88L111.967 110.63H127.987L136.987 130.61L146.437 110.63H162.097L145.627 139.34ZM211.781 110.63L210.341 121.97H194.951V173H180.191V121.97H164.081V110.63H211.781ZM53.7 264L50.46 250.59H32.28L29.13 264H13.83L32.64 201.63H50.55L69.36 264H53.7ZM34.8 239.88H47.94L41.37 212.34L34.8 239.88ZM94.0959 201.63C102.316 201.63 108.706 203.34 113.266 206.76C117.826 210.18 120.106 215.25 120.106 221.97C120.106 228.99 117.856 234.3 113.356 237.9C108.916 241.44 102.946 243.21 95.4459 243.21H88.6959V264H73.9359V201.63H94.0959ZM94.1859 232.59C97.6659 232.59 100.306 231.78 102.106 230.16C103.966 228.48 104.896 225.75 104.896 221.97C104.896 215.43 101.236 212.16 93.9159 212.16H88.6959V232.59H94.1859ZM148.061 201.63C156.281 201.63 162.671 203.34 167.231 206.76C171.791 210.18 174.071 215.25 174.071 221.97C174.071 228.99 171.821 234.3 167.321 237.9C162.881 241.44 156.911 243.21 149.411 243.21H142.661V264H127.901V201.63H148.061ZM148.151 232.59C151.631 232.59 154.271 231.78 156.071 230.16C157.931 228.48 158.861 225.75 158.861 221.97C158.861 215.43 155.201 212.16 147.881 212.16H142.661V232.59H148.151ZM209.354 264L206.114 250.59H187.934L184.784 264H169.484L188.294 201.63H206.204L225.014 264H209.354ZM190.454 239.88H203.594L197.024 212.34L190.454 239.88ZM250.11 240.15H244.35V264H229.59V201.63H250.02C258.54 201.63 264.93 203.19 269.19 206.31C273.51 209.43 275.67 214.2 275.67 220.62C275.67 224.64 274.71 228 272.79 230.7C270.87 233.34 267.84 235.59 263.7 237.45L279.54 264H262.89L250.11 240.15ZM244.35 229.98H250.56C253.86 229.98 256.32 229.23 257.94 227.73C259.62 226.23 260.46 223.86 260.46 220.62C260.46 217.62 259.56 215.43 257.76 214.05C256.02 212.67 253.32 211.98 249.66 211.98H244.35V229.98ZM323.387 201.63L321.857 212.16H299.897V227.1H319.067V237.45H299.897V253.38H323.387V264H285.137V201.63H323.387ZM347.27 201.63V252.3H371.57L370.04 264H332.51V201.63H347.27Z" fill="url(#paint0_linear_4_85)"/>
<path d="M36.04 299.52C36.8 299.533 37.5133 299.653 38.18 299.88C38.86 300.093 39.46 300.413 39.98 300.84L39.18 301.86C38.46 301.22 37.7133 300.78 36.94 300.54C36.1667 300.3 35.1533 300.18 33.9 300.18C32.7933 300.18 31.82 299.913 30.98 299.38C30.14 298.833 29.4867 298.04 29.02 297C28.5533 295.947 28.32 294.673 28.32 293.18C28.32 291.7 28.5533 290.427 29.02 289.36C29.4867 288.293 30.14 287.48 30.98 286.92C31.8333 286.36 32.8067 286.08 33.9 286.08C35.02 286.08 36 286.353 36.84 286.9C37.68 287.433 38.3333 288.233 38.8 289.3C39.2667 290.367 39.5 291.653 39.5 293.16C39.5 296.56 38.3467 298.68 36.04 299.52ZM29.58 293.18C29.58 295.167 29.9667 296.667 30.74 297.68C31.5267 298.693 32.58 299.2 33.9 299.2C35.2733 299.2 36.34 298.7 37.1 297.7C37.86 296.687 38.24 295.173 38.24 293.16C38.24 291.133 37.8533 289.62 37.08 288.62C36.32 287.607 35.26 287.1 33.9 287.1C32.5667 287.1 31.5133 287.613 30.74 288.64C29.9667 289.653 29.58 291.167 29.58 293.18ZM51.8286 295.72C51.8286 297.08 51.4419 298.173 50.6686 299C49.8953 299.813 48.7819 300.22 47.3286 300.22C45.8619 300.22 44.7419 299.813 43.9686 299C43.2086 298.187 42.8286 297.093 42.8286 295.72V286.3H44.0286V295.62C44.0286 296.767 44.2953 297.647 44.8286 298.26C45.3753 298.873 46.2086 299.18 47.3286 299.18C48.4486 299.18 49.2753 298.873 49.8086 298.26C50.3419 297.633 50.6086 296.753 50.6086 295.62V286.3H51.8286V295.72ZM63.3602 300L62.1602 296.26H56.4002L55.2002 300H53.9802L58.5602 286.3H60.0602L64.6202 300H63.3602ZM56.7402 295.24H61.8402L59.3002 287.28L56.7402 295.24ZM68.3888 286.3V298.92H74.1088L73.9488 300H67.1888V286.3H68.3888ZM77.92 286.3V300H76.72V286.3H77.92ZM85.0845 286.3C86.9779 286.3 88.5112 286.78 89.6845 287.74C90.8712 288.7 91.4645 290.467 91.4645 293.04C91.4645 295.613 90.8645 297.42 89.6645 298.46C88.4779 299.487 87.0245 300 85.3045 300H82.3645V286.3H85.0845ZM83.5645 287.3V299H85.3845C88.5979 299 90.2045 297.013 90.2045 293.04C90.2045 291.467 89.9712 290.26 89.5045 289.42C89.0379 288.58 88.4445 288.02 87.7245 287.74C87.0179 287.447 86.1912 287.3 85.2445 287.3H83.5645ZM102.286 300L101.086 296.26H95.3259L94.1259 300H92.9059L97.4859 286.3H98.9859L103.546 300H102.286ZM95.6659 295.24H100.766L98.2259 287.28L95.6659 295.24ZM108.835 286.3C110.728 286.3 112.261 286.78 113.435 287.74C114.621 288.7 115.215 290.467 115.215 293.04C115.215 295.613 114.615 297.42 113.415 298.46C112.228 299.487 110.775 300 109.055 300H106.115V286.3H108.835ZM107.315 287.3V299H109.135C112.348 299 113.955 297.013 113.955 293.04C113.955 291.467 113.721 290.26 113.255 289.42C112.788 288.58 112.195 288.02 111.475 287.74C110.768 287.447 109.941 287.3 108.995 287.3H107.315ZM125.711 286.3L125.571 287.3H119.951V292.4H124.811V293.4H119.951V299H125.851V300H118.751V286.3H125.711Z" fill="#A8A8A8"/>
<path d="M183.02 300H181.86L181.24 293.44C180.987 290.893 180.813 288.907 180.72 287.48L177.28 298.38H176.14L172.58 287.48C172.513 288.773 172.38 290.487 172.18 292.62L172.12 293.4L171.52 300H170.38L171.68 286.3H173.34L176.74 296.96L180.02 286.3H181.7L183.02 300ZM187.811 286.3V300H186.611V286.3H187.811ZM201.275 300H199.695L193.235 287.62C193.342 289.287 193.395 290.86 193.395 292.34V300H192.255V286.3H193.795L200.295 298.68C200.188 297.133 200.135 295.78 200.135 294.62V286.3H201.275V300ZM206.912 286.3V300H205.712V286.3H206.912ZM223.157 300H221.997L221.377 293.44C221.123 290.893 220.95 288.907 220.857 287.48L217.417 298.38H216.277L212.717 287.48C212.65 288.773 212.517 290.487 212.317 292.62L212.257 293.4L211.657 300H210.517L211.817 286.3H213.477L216.877 296.96L220.157 286.3H221.837L223.157 300ZM234.227 300L233.027 296.26H227.267L226.067 300H224.847L229.427 286.3H230.927L235.487 300H234.227ZM227.607 295.24H232.707L230.167 287.28L227.607 295.24ZM239.256 286.3V298.92H244.976L244.816 300H238.056V286.3H239.256ZM248.787 286.3V300H247.587V286.3H248.787ZM256.352 286.08C257.192 286.08 257.912 286.207 258.512 286.46C259.125 286.7 259.718 287.08 260.292 287.6L259.592 288.36C259.072 287.92 258.565 287.6 258.072 287.4C257.578 287.2 257.018 287.1 256.392 287.1C255.538 287.1 254.852 287.313 254.332 287.74C253.812 288.153 253.552 288.713 253.552 289.42C253.552 289.9 253.645 290.3 253.832 290.62C254.032 290.927 254.358 291.207 254.812 291.46C255.265 291.7 255.912 291.947 256.752 292.2C257.658 292.48 258.392 292.78 258.952 293.1C259.512 293.42 259.945 293.833 260.252 294.34C260.558 294.847 260.712 295.487 260.712 296.26C260.712 297.033 260.525 297.72 260.152 298.32C259.778 298.92 259.245 299.387 258.552 299.72C257.872 300.053 257.078 300.22 256.172 300.22C254.465 300.22 253.005 299.647 251.792 298.5L252.472 297.74C253.032 298.22 253.598 298.587 254.172 298.84C254.745 299.08 255.405 299.2 256.152 299.2C257.138 299.2 257.938 298.94 258.552 298.42C259.178 297.9 259.492 297.193 259.492 296.3C259.492 295.74 259.385 295.28 259.172 294.92C258.972 294.56 258.638 294.253 258.172 294C257.718 293.733 257.072 293.467 256.232 293.2C254.832 292.773 253.832 292.28 253.232 291.72C252.632 291.16 252.332 290.4 252.332 289.44C252.332 288.8 252.498 288.227 252.832 287.72C253.178 287.2 253.652 286.8 254.252 286.52C254.865 286.227 255.565 286.08 256.352 286.08ZM275.618 300H274.458L273.838 293.44C273.584 290.893 273.411 288.907 273.318 287.48L269.878 298.38H268.738L265.178 287.48C265.111 288.773 264.978 290.487 264.778 292.62L264.718 293.4L264.118 300H262.978L264.278 286.3H265.938L269.338 296.96L272.618 286.3H274.298L275.618 300ZM283.693 286.08C284.813 286.08 285.793 286.353 286.633 286.9C287.473 287.433 288.126 288.233 288.593 289.3C289.06 290.367 289.293 291.653 289.293 293.16C289.293 294.64 289.06 295.913 288.593 296.98C288.14 298.033 287.493 298.84 286.653 299.4C285.813 299.947 284.826 300.22 283.693 300.22C282.586 300.22 281.613 299.947 280.773 299.4C279.933 298.853 279.28 298.053 278.813 297C278.346 295.947 278.113 294.673 278.113 293.18C278.113 291.7 278.346 290.427 278.813 289.36C279.28 288.293 279.933 287.48 280.773 286.92C281.626 286.36 282.6 286.08 283.693 286.08ZM283.693 287.1C282.36 287.1 281.306 287.613 280.533 288.64C279.76 289.653 279.373 291.167 279.373 293.18C279.373 295.167 279.76 296.667 280.533 297.68C281.32 298.693 282.373 299.2 283.693 299.2C285.066 299.2 286.133 298.7 286.893 297.7C287.653 296.687 288.033 295.173 288.033 293.16C288.033 291.133 287.646 289.62 286.873 288.62C286.113 287.607 285.053 287.1 283.693 287.1Z" fill="#A8A8A8"/>
<defs>
<linearGradient id="paint0_linear_4_85" x1="194" y1="-54" x2="194" y2="481" gradientUnits="userSpaceOnUse">
<stop stop-color="#D0D0D0"/>
<stop offset="1" stop-color="#D0D0D0" stop-opacity="0"/>
</linearGradient>
</defs>
</svg>
